<svg xmlns="http://www.w3.org/2000/svg" viewBox="0 0 44.0 44.0" width="44.0" height="44.0" role="img" aria-label="Villa 24">
  <title>Villa 24</title>
  <circle cx="22.0" cy="22.0" r="19.0" fill="#23022e"/>
  <path fill="#aa78a6" transform="translate(7.733 26.712) scale(0.006641 -0.006641)" d="M1602 1339Q1569 1336 1539.0 1327.0Q1509 1318 1477 1299Q1434 1274 1410.5 1245.5Q1387 1217 1364 1167Q1333 1098 1277.0 965.5Q1221 833 1149 664Q1085 512 1010.5 331.0Q936 150 868 -16H667Q527 327 382.0 681.0Q237 1035 178 1173Q155 1223 133.5 1248.5Q112 1274 65 1301Q31 1320 5.0 1327.5Q-21 1335 -64 1341V1419H705V1343Q597 1330 558.5 1315.5Q520 1301 520 1279Q520 1268 523.5 1255.5Q527 1243 534 1222Q566 1134 650.0 934.5Q734 735 899 326Q1000 575 1067.0 747.0Q1134 919 1185 1051Q1210 1115 1226.5 1170.5Q1243 1226 1243 1254Q1243 1286 1197.0 1307.5Q1151 1329 1027 1339V1419H1602Z"/>
  <path fill="#aa78a6" transform="translate(18.507 26.712) scale(0.006641 -0.006641)" d="M1194 0H110V181Q181 253 265.5 312.5Q350 372 437 418Q530 467 593.0 505.5Q656 544 692 586Q728 625 743.5 671.0Q759 717 759 774Q759 901 699.0 959.0Q639 1017 540 1017Q509 1017 481.5 1012.5Q454 1008 424 996Q439 951 453.0 903.0Q467 855 467 796Q467 725 416.0 683.0Q365 641 286 641Q211 641 166.5 690.0Q122 739 122 809Q122 931 264.0 1020.0Q406 1109 610 1109Q846 1109 991.5 1028.0Q1137 947 1137 767Q1137 674 1098.5 617.0Q1060 560 985 517Q918 478 836.5 453.0Q755 428 662 405Q563 380 489.5 352.0Q416 324 359 285V274H1194Z"/>
  <path fill="#aa78a6" transform="translate(27.435 26.712) scale(0.006641 -0.006641)" d="M1261 10H1046V-369H711V10H49V194L767 1103H1046V221H1261ZM711 221V864L202 221Z"/>
</svg>
